HIERARCHY
ROOT Hips
{
	OFFSET 0.000000 0.000000 0.000000
	CHANNELS 6 Xposition Yposition Zposition Xrotation Yrotation Zrotation
	JOINT LeftUpLeg_virtual
	{
		OFFSET 0.000000 0.000000 0.000000
		CHANNELS 3 Xrotation Yrotation Zrotation
		JOINT LeftUpLeg
		{
			OFFSET 10.205400 -3.823500 0.155100
			CHANNELS 3 Xrotation Yrotation Zrotation
			JOINT LeftLeg
			{
				OFFSET 0.708757 -12.982077 0.567790
				CHANNELS 3 Xrotation Yrotation Zrotation
				JOINT LeftFoot
				{
					OFFSET -0.708756 -10.717838 -2.184338
					CHANNELS 3 Xrotation Yrotation Zrotation
					JOINT LeftToeBase
					{
						OFFSET 0.108149 -7.191104 7.560241
						CHANNELS 3 Xrotation Yrotation Zrotation
						JOINT LeftToe_End
						{
							OFFSET 0.070230 0.081724 4.490308
							CHANNELS 3 Xrotation Yrotation Zrotation
							End Site
							{
								OFFSET 0 0 0
							}
						}
					}
				}
			}
		}
	}
	JOINT RightUpLeg_virtual
	{
		OFFSET 0.000000 0.000000 0.000000
		CHANNELS 3 Xrotation Yrotation Zrotation
		JOINT RightUpLeg
		{
			OFFSET -10.205400 -3.823500 0.005500
			CHANNELS 3 Xrotation Yrotation Zrotation
			JOINT RightLeg
			{
				OFFSET -0.708756 -12.982134 0.610632
				CHANNELS 3 Xrotation Yrotation Zrotation
				JOINT RightFoot
				{
					OFFSET 0.708754 -10.717769 -1.945823
					CHANNELS 3 Xrotation Yrotation Zrotation
					JOINT RightToeBase
					{
						OFFSET -0.108140 -7.191069 7.372968
						CHANNELS 3 Xrotation Yrotation Zrotation
						JOINT RightToe_End
						{
							OFFSET -0.070227 0.081735 4.479403
							CHANNELS 3 Xrotation Yrotation Zrotation
							End Site
							{
								OFFSET 0 0 0
							}
						}
					}
				}
			}
		}
	}
	JOINT Spine_virtual
	{
		OFFSET 0.000000 0.000000 0.000000
		CHANNELS 3 Xrotation Yrotation Zrotation
		JOINT Spine
		{
			OFFSET 0.000000 6.876099 0.125700
			CHANNELS 3 Xrotation Yrotation Zrotation
			JOINT Spine1
			{
				OFFSET 0.000000 5.730043 0.104720
				CHANNELS 3 Xrotation Yrotation Zrotation
				JOINT Spine1_split
				{
					OFFSET 0.000000 5.730043 0.104720
					CHANNELS 3 Xrotation Yrotation Zrotation
					JOINT Spine2
					{
						OFFSET 0.000000 5.730043 0.104720
						CHANNELS 3 Xrotation Yrotation Zrotation
						JOINT Neck_virtual
						{
							OFFSET 0.000000 0.000000 0.000000
							CHANNELS 3 Xrotation Yrotation Zrotation
							JOINT Neck
							{
								OFFSET 0.000000 10.314075 0.188496
								CHANNELS 3 Xrotation Yrotation Zrotation
								JOINT Head
								{
									OFFSET 0.000000 7.643700 -2.377400
									CHANNELS 3 Xrotation Yrotation Zrotation
									JOINT HeadTop_End
									{
										OFFSET 0.000000 43.788605 -13.619600
										CHANNELS 3 Xrotation Yrotation Zrotation
										End Site
										{
											OFFSET 0 0 0
										}
									}
								}
							}
						}
						JOINT LeftShoulder_virtual
						{
							OFFSET 0.000000 0.000000 0.000000
							CHANNELS 3 Xrotation Yrotation Zrotation
							JOINT LeftShoulder
							{
								OFFSET 2.196100 4.412489 0.087492
								CHANNELS 3 Xrotation Yrotation Zrotation
								JOINT LeftShoulder_split
								{
									OFFSET 2.196100 4.412489 0.087492
									CHANNELS 3 Xrotation Yrotation Zrotation
									JOINT LeftArm
									{
										OFFSET 8.771219 -2.981674 -0.026999
										CHANNELS 3 Xrotation Yrotation Zrotation
										JOINT LeftForeArm
										{
											OFFSET 8.512804 0.000000 -0.000000
											CHANNELS 3 Xrotation Yrotation Zrotation
											JOINT LeftHand
											{
												OFFSET 18.484802 0.000000 -0.000000
												CHANNELS 3 Xrotation Yrotation Zrotation
												End Site
												{
													OFFSET 0 0 0
												}
											}
										}
									}
								}
							}
						}
						JOINT RightShoulder_virtual
						{
							OFFSET 0.000000 0.000000 0.000000
							CHANNELS 3 Xrotation Yrotation Zrotation
							JOINT RightShoulder
							{
								OFFSET -2.196100 4.412496 0.070690
								CHANNELS 3 Xrotation Yrotation Zrotation
								JOINT RightShoulder_split
								{
									OFFSET -2.196100 4.412496 0.070690
									CHANNELS 3 Xrotation Yrotation Zrotation
									JOINT RightArm
									{
										OFFSET -8.771282 -2.981682 -0.094208
										CHANNELS 3 Xrotation Yrotation Zrotation
										JOINT RightForeArm
										{
											OFFSET -8.494598 0.000000 0.000000
											CHANNELS 3 Xrotation Yrotation Zrotation
											JOINT RightHand
											{
												OFFSET -18.483803 0.000000 0.000001
												CHANNELS 3 Xrotation Yrotation Zrotation
												End Site
												{
													OFFSET 0 0 0
												}
											}
										}
									}
								}
							}
						}
					}
				}
			}
		}
	}
}
MOTION
Frames: 5
Frame Time: 0.03333333
-2.883721 31.793377 -0.248381 0.000000 0.000000 0.000000 2.694067 29.561865 1.371534 -37.577980 -18.322495 0.714204 35.999530 14.147605 -8.294833 2.841291 0.259440 -9.260658 1.750825 -1.423308 0.200074 0.000000 0.000000 0.000000 3.605568 28.560337 1.114412 14.333775 -23.282378 -5.880978 23.093549 -6.584899 6.694720 -38.448842 -13.274559 -0.708408 -1.556212 -0.868253 -1.301021 0.000000 0.000000 0.000000 3.447697 29.302864 0.324516 3.847867 4.380824 -1.241344 0.476894 3.245170 0.500483 0.391894 0.760935 0.078146 0.000000 0.000000 0.000000 1.507219 2.832182 0.907004 -3.188111 11.877550 -6.995137 -6.057940 9.435367 9.659663 0.000000 0.000000 0.000000 0.261249 3.092968 0.936580 -0.021370 -1.861389 -3.234081 2.860528 -1.138910 -0.111324 -74.254538 -0.406861 -25.486282 1.159970 -65.661498 3.289960 0.000000 0.000000 0.000000 0.968457 3.025946 0.954982 4.267888 12.122267 8.131137 -5.294974 -0.310612 0.322783 14.722408 -6.253915 67.379823 17.045388 40.963571 -6.955456 0.000000 0.000000 0.000000 
-2.854932 31.867298 -0.333233 0.000000 0.000000 0.000000 3.239988 26.706721 1.131186 -36.384479 -17.799304 2.529695 35.593000 14.882043 -8.411855 2.301566 0.674225 -9.810061 1.948968 -1.446439 0.052939 0.000000 0.000000 0.000000 4.238494 25.853157 0.889988 12.811610 -22.005966 -6.012725 23.070538 -6.190369 6.501298 -37.353106 -13.059494 -0.528335 -1.772227 -0.866744 -1.441853 0.000000 0.000000 0.000000 3.991881 26.598830 0.075971 3.864602 4.135589 -1.415461 0.607066 3.107650 0.495994 0.367373 0.857473 0.006658 0.000000 0.000000 0.000000 1.596339 2.686562 0.885510 -3.974223 8.568289 -6.404597 -4.426442 6.266615 10.083509 0.000000 0.000000 0.000000 0.316625 2.943219 0.906814 -0.006621 -2.434278 -3.332421 2.770448 -0.972827 -0.003266 -74.656365 0.027363 -26.636899 1.722101 -67.901007 3.472117 0.000000 0.000000 0.000000 1.083703 2.873313 0.922797 4.239342 11.945404 7.910529 -5.295260 -0.180483 0.276465 14.177512 -6.071264 67.427423 17.469402 42.246492 -7.319198 0.000000 0.000000 0.000000 
-2.816000 31.945108 -0.434759 0.000000 0.000000 0.000000 3.839233 23.669269 0.892774 -35.215909 -17.412654 4.448816 35.171919 15.788795 -8.495368 1.756884 1.237268 -10.522642 2.193883 -1.450119 -0.163786 0.000000 0.000000 0.000000 4.907045 22.918688 0.677515 11.089983 -20.628763 -6.130280 23.037729 -5.721723 6.310507 -36.138193 -12.818253 -0.317750 -1.996758 -0.869943 -1.527238 0.000000 0.000000 0.000000 4.577684 23.623669 -0.147921 3.851019 3.886146 -1.586579 0.763341 2.959604 0.487736 0.371183 1.029336 -0.041892 0.000000 0.000000 0.000000 1.704030 2.536299 0.864672 -5.050591 5.233967 -5.928426 -2.809153 3.188379 10.326377 0.000000 0.000000 0.000000 0.386000 2.806995 0.877297 0.022700 -3.084488 -3.320044 2.677034 -0.954142 0.068923 -74.930665 0.366539 -28.041395 2.543693 -70.277394 3.901056 0.000000 0.000000 0.000000 1.231253 2.725680 0.882060 4.186882 11.683528 7.660335 -5.231306 -0.039379 0.244900 13.654977 -5.761191 67.431596 17.951001 43.615399 -7.732690 0.000000 0.000000 0.000000 
-2.764088 32.028168 -0.547667 0.000000 0.000000 0.000000 4.460479 20.414397 0.660456 -34.037647 -17.109684 6.482421 34.775505 16.857658 -8.542275 1.233167 1.951238 -11.421729 2.414854 -1.439083 -0.432398 0.000000 0.000000 0.000000 5.564607 19.714067 0.484765 9.196850 -19.148956 -6.210684 22.973994 -5.167132 6.112367 -34.806777 -12.516883 -0.099783 -2.183398 -0.884078 -1.533261 0.000000 0.000000 0.000000 5.172248 20.332392 -0.333413 3.814193 3.631241 -1.738348 0.933343 2.795570 0.482164 0.382053 1.283826 -0.036056 0.000000 0.000000 0.000000 1.817830 2.379186 0.850420 -6.412562 1.820523 -5.492821 -1.152903 0.092855 10.422543 0.000000 0.000000 0.000000 0.467653 2.682282 0.852062 0.070587 -3.780998 -3.204605 2.581641 -1.098712 0.114037 -75.040358 0.502931 -29.709629 3.668206 -72.429156 4.626904 0.000000 0.000000 0.000000 1.411089 2.584383 0.837130 4.116278 11.378128 7.400607 -5.087221 0.142652 0.185879 13.202264 -5.297618 67.321520 18.461055 44.980832 -8.148012 0.000000 0.000000 0.000000 
-2.696231 32.113628 -0.668293 0.000000 0.000000 0.000000 5.061937 16.865472 0.449623 -32.829772 -16.806141 8.632395 34.490587 17.996377 -8.561784 0.730624 2.779540 -12.494953 2.565762 -1.413693 -0.713449 0.000000 0.000000 0.000000 6.169265 16.192280 0.321129 7.146653 -17.564431 -6.263617 22.865358 -4.504926 5.905492 -33.351581 -12.113287 0.109973 -2.275965 -0.905969 -1.458230 0.000000 0.000000 0.000000 5.724660 16.706038 -0.477610 3.776293 3.367199 -1.856516 1.104183 2.616140 0.488437 0.401296 1.530746 0.000621 0.000000 0.000000 0.000000 1.917049 2.213638 0.848604 -8.001207 -1.716515 -5.001830 0.557604 -3.128906 10.425859 0.000000 0.000000 0.000000 0.565606 2.553422 0.831378 0.137551 -4.499046 -2.996649 2.435695 -1.335874 0.125923 -75.014048 0.379386 -31.527419 4.951853 -73.894833 5.520035 0.000000 0.000000 0.000000 1.613333 2.446036 0.801132 4.030852 11.088921 7.165294 -4.867039 0.370695 0.050318 12.824237 -4.693163 67.032815 18.926644 46.164989 -8.484124 0.000000 0.000000 0.000000 
